<svg xmlns="http://www.w3.org/2000/svg" width="800" height="800" fill="none" viewBox="0 0 64 64"><path fill="#2a2941" fill-rule="evenodd" d="m39.796 47.953-.979-1.951c0-.225-6.949-3.726-7.927-4.502-.728-.6.4-2.05 1.806-1.85.778.1 2.584 1.25 2.96 1.025.377-.225-.702-2.4-.702-2.4l-3.161-6.979a1.4 1.4 0 0 1 .15-.775 1.18 1.18 0 0 1 .577-.525c.251-.1.527-.15.778-.075.25.05.502.2.677.4l1.656 3.601c.075-.35.276-.675.552-.925s.627-.375.979-.4c.25.025.501.1.727.225s.427.275.602.475c0 0 1.33-1.825 2.685-.1.752-.75 1.48-1.1 2.408-.55 1.982 4.777 3.487 6.803 2.935 8.928l1.305 2.926z" clip-rule="evenodd"/><path stroke="#2a2941" stroke-linecap="square" stroke-miterlimit="10" stroke-width="2.034" d="m37.387 36.799-1.58-3.502M40.197 36.348l-1.605-3.651"/><path fill="#2a2941" fill-rule="evenodd" d="m42.806 35.948-1.103-2.45-.377-.901" clip-rule="evenodd"/><path stroke="#2a2941" stroke-linecap="square" stroke-miterlimit="10" stroke-width="2.034" d="m42.806 35.948-1.103-2.45-.377-.901"/><path fill="#2a2941" fill-rule="evenodd" d="M21.356 19.517c2.082-.8 4.34-.95 6.498-.475a11.2 11.2 0 0 1 5.67 3.2 11.17 11.17 0 0 1 2.935 5.803c.376 2.176.125 4.427-.778 6.453a11.3 11.3 0 0 1-4.24 4.952 11.2 11.2 0 0 1-6.272 1.775c-2.232-.05-4.39-.725-6.221-2a11.22 11.22 0 0 1-4.065-5.078 11.25 11.25 0 0 1 .176-8.653c1.254-2.726 3.487-4.902 6.297-5.977" clip-rule="evenodd"/><path fill="#2a2941" fill-rule="evenodd" d="m21.08 18.792-.301.1za12.03 12.03 0 0 0-5.444 4.401 12.2 12.2 0 0 0-2.082 6.678 12 12 0 0 0 1.982 6.702c1.304 2.001 3.186 3.552 5.394 4.477a12.35 12.35 0 0 0 6.974.75 12.1 12.1 0 0 0 6.222-3.25 11.95 11.95 0 0 0 3.362-6.153 12.1 12.1 0 0 0-.627-6.978 12.5 12.5 0 0 0-2.585-3.951 12.6 12.6 0 0 0-3.913-2.651 11.8 11.8 0 0 0-4.642-.95c-1.605.024-3.186.324-4.641.925m.552 1.45.301-.125zc1.932-.75 4.04-.9 6.046-.45s3.864 1.5 5.294 2.976a10.4 10.4 0 0 1 2.734 5.402c.352 2.026.1 4.127-.727 6.002a10.36 10.36 0 0 1-3.939 4.602 10.26 10.26 0 0 1-5.845 1.65 10.34 10.34 0 0 1-5.77-1.85 10.6 10.6 0 0 1-3.79-4.727c-1.028-2.6-.953-5.502.151-8.053 1.155-2.526 3.262-4.552 5.846-5.552" clip-rule="evenodd"/><path stroke="#2a2941" stroke-linecap="round" stroke-linejoin="round" stroke-width="2.034" d="M21.33 19.642c-2.633 6.427 1.832 17.557 8.957 20.283M21.406 19.592C30.262 23.193 32.12 34.798 30.59 40.2"/><path stroke="#2a2941" stroke-linecap="round" stroke-linejoin="round" stroke-width="2.034" d="M21.456 40.025a17.9 17.9 0 0 1 6.674-4.702 18.2 18.2 0 0 1 8.078-1.276M29.535 19.867c-2.66 3.601-8.23 5.877-13.623 5.577M15.385 34.498c8.957-4.027 12.795-5.677 20.522-8.979"/><path fill="#32edbb" fill-rule="evenodd" d="M22.385 17.416a11.26 11.26 0 0 1 6.548-.475c2.182.5 4.164 1.6 5.695 3.226 1.53 1.6 2.584 3.627 2.96 5.827.401 2.201.126 4.452-.778 6.478a11.3 11.3 0 0 1-4.265 4.977 11.46 11.46 0 0 1-6.297 1.8 11.17 11.17 0 0 1-6.247-2 11.5 11.5 0 0 1-4.09-5.102c-1.103-2.801-1.028-5.928.176-8.704a11.43 11.43 0 0 1 6.298-6.027" clip-rule="evenodd"/><path fill="#2a2941" fill-rule="evenodd" d="M22.109 16.69c-2.208.901-4.09 2.452-5.42 4.427a12 12 0 0 0-2.057 6.678c0 2.376.678 4.702 2.007 6.703a12.1 12.1 0 0 0 5.394 4.476 12.33 12.33 0 0 0 6.975.75 12.24 12.24 0 0 0 6.222-3.226 12.2 12.2 0 0 0 3.387-6.127 12 12 0 0 0-.602-6.953c-1.205-2.976-3.563-5.352-6.549-6.627a12.26 12.26 0 0 0-9.357-.1m.577 1.451c1.931-.75 4.064-.9 6.096-.425 2.032.45 3.864 1.5 5.319 3.001a10.6 10.6 0 0 1 2.76 5.427c.35 2.051.1 4.152-.728 6.028a10.46 10.46 0 0 1-3.964 4.627 10.6 10.6 0 0 1-5.87 1.675 10.56 10.56 0 0 1-5.821-1.85 10.6 10.6 0 0 1-3.814-4.752 10.55 10.55 0 0 1 .151-8.103 10.6 10.6 0 0 1 5.87-5.628" clip-rule="evenodd"/><path fill="#2a2941" fill-rule="evenodd" d="M21.757 17.316c-1.38 3.351-.928 7.953.828 12.055s4.792 7.678 8.505 9.128c.15.05.326.05.477 0 .15-.075.276-.175.326-.35.025-.075.05-.15.05-.225a.7.7 0 0 0-.05-.225.4.4 0 0 0-.15-.2.55.55 0 0 0-.201-.125c-3.412-1.326-6.197-4.677-7.803-8.479-1.605-3.8-2.082-8.027-.802-11.104.025-.075.05-.15.05-.225s-.025-.15-.05-.225a.54.54 0 0 0-.126-.2.55.55 0 0 0-.2-.125.78.78 0 0 0-.477 0 .44.44 0 0 0-.377.3" clip-rule="evenodd"/><path fill="#2a2941" fill-rule="evenodd" d="M22.209 18.041a15.1 15.1 0 0 1 5.118 3.752 14.7 14.7 0 0 1 3.06 5.552c1.23 3.426 1.481 7.102.678 10.654-.025.075-.025.15-.025.25s.025.15.075.225.1.125.15.175a.6.6 0 0 0 .227.1c.15.05.326.025.476-.05q.225-.113.301-.375a20.54 20.54 0 0 0-.702-11.404 16.2 16.2 0 0 0-3.337-5.978 16.2 16.2 0 0 0-5.544-4.051c-.076-.05-.15-.1-.251-.125a.5.5 0 0 0-.276 0c-.1.025-.176.075-.251.125a.45.45 0 0 0-.15.225.9.9 0 0 0-.05.275c0 .1.024.175.075.275.05.075.1.15.175.2s.176.1.251.1z" clip-rule="evenodd"/><path fill="#2a2941" fill-rule="evenodd" d="M22.962 38.424c1.78-2 3.989-3.551 6.472-4.552s5.169-1.425 7.828-1.225c.15 0 .326-.05.452-.15.125-.1.2-.25.225-.425 0-.15-.05-.326-.15-.45a.65.65 0 0 0-.427-.226c-2.86-.2-5.745.25-8.404 1.326a18.6 18.6 0 0 0-6.95 4.902c-.05.05-.1.125-.125.2s-.025.15-.025.25q0 .113.075.225c.025.075.075.125.15.2.05.05.126.1.201.125s.15.025.251.025q.112 0 .226-.075a.4.4 0 0 0 .2-.15M30.112 17.391c-2.584 3.477-7.953 5.627-13.146 5.352a.7.7 0 0 0-.452.15c-.125.1-.2.275-.2.425q0 .263.15.45c.1.126.276.2.426.2 5.62.3 11.415-2.1 14.2-5.852a1 1 0 0 0 .1-.225.42.42 0 0 0 0-.25c0-.075-.05-.15-.075-.225a.6.6 0 0 0-.175-.175.58.58 0 0 0-.452-.1.77.77 0 0 0-.376.25M16.64 33.047c9.006-4.027 12.845-5.702 20.597-9.028.1-.025.175-.05.25-.1a.7.7 0 0 0 .176-.2.5.5 0 0 0 .076-.276c0-.1-.025-.175-.05-.275-.026-.075-.1-.15-.176-.225-.075-.05-.15-.1-.251-.125a.5.5 0 0 0-.276 0 .8.8 0 0 0-.25.1 1117 1117 0 0 0-20.598 9.029.5.5 0 0 0-.251.125.7.7 0 0 0-.176.2.5.5 0 0 0-.075.25c0 .1.025.175.05.275.025.075.1.15.15.225.076.05.151.1.251.125s.176.025.276 0c.126-.025.201-.05.276-.1" clip-rule="evenodd"/><path fill="#fff" fill-rule="evenodd" d="m40.95 45.427-.954-1.95c0-.226-6.974-3.702-7.952-4.503-.728-.6.401-2.05 1.806-1.85.778.125 2.61 1.25 2.96 1.025.377-.225-.702-2.4-.702-2.4l-3.186-7.004a1.12 1.12 0 0 1 .175-.75c.126-.225.326-.4.577-.525.251-.1.502-.15.778-.1.25.05.502.175.677.375l1.656 3.601c.076-.35.276-.675.552-.925s.627-.375 1.004-.4c.25.025.502.1.727.2.226.125.427.275.577.475 0 0 1.33-1.826 2.685-.1.727-.75 1.48-1.1 2.408-.55 1.982 4.777 3.487 6.828 2.935 8.953l1.305 2.926z" clip-rule="evenodd"/><path fill="#2a2941" fill-rule="evenodd" d="M35.355 36.573h-.1A5.7 5.7 0 0 0 34 36.148a2.8 2.8 0 0 0-1.43.15c-.451.175-.878.45-1.204.8q-.3.264-.451.6c-.1.226-.15.476-.15.726s.05.5.15.725.25.45.451.6c.878.726 6.498 3.602 7.778 4.377l1.279 2.601 9.91-4.276-1.58-3.552c.15-.975.05-1.976-.327-2.9-.502-1.526-1.53-3.427-2.735-6.328l-.125-.3-.276-.175a2.56 2.56 0 0 0-1.706-.4c-.426.05-.853.224-1.204.475a2.45 2.45 0 0 0-1.104-.4 2.4 2.4 0 0 0-1.53.45l-.1.075a2.6 2.6 0 0 0-1.23-.376c-.477 0-.953.15-1.355.4l-1.003-2.125-.076-.1a2.24 2.24 0 0 0-1.254-.75 2.42 2.42 0 0 0-1.455.15c-.452.2-.828.55-1.079.975-.25.425-.326.925-.25 1.425v.126l3.31 7.127.151.375zm5.595 8.854-.954-1.951c-.05-.225-6.974-3.701-7.952-4.502-.728-.6.401-2.05 1.806-1.85.778.125 2.61 1.25 2.96 1.025.352-.225-.702-2.4-.702-2.4l-3.186-7.004a1.12 1.12 0 0 1 .175-.75c.126-.225.326-.4.577-.525.251-.1.502-.15.778-.1.25.05.502.175.677.375l1.681 3.601c.076-.35.276-.675.552-.925s.627-.375 1.004-.4c.25.025.502.1.727.2.226.125.427.275.577.475 0 0 1.33-1.826 2.685-.1.727-.75 1.48-1.1 2.408-.55 1.982 4.777 3.513 6.828 2.936 8.953l1.304 2.926z" clip-rule="evenodd"/><path fill="#2a2941" fill-rule="evenodd" d="m39.37 34.473-1.983-4.452-.928.425 1.982 4.452zM42.029 34.098l-2.007-4.577-.954.4 2.007 4.577z" clip-rule="evenodd"/><path fill="#faa2a2" fill-rule="evenodd" d="m43.96 33.447-1.103-2.45-.377-.901" clip-rule="evenodd"/><path fill="#2a2941" fill-rule="evenodd" d="m44.638 33.697-1.305-2.95-.602-1.351-.953.4.602 1.35 1.33 2.926z" clip-rule="evenodd"/></svg>